# xmcd
#
# Track frame offsets: 
#        150
#        44911
#        90420
#        132952
#        179613
#        222461
#
# Disc length: 3340 seconds
#
# Revision: 3
# Processed by: cddbd v1.5.2PL0 Copyright (c) Steve Scherf et al.
# Submitted via: ExactAudioCopy v1.0b3
#
DISCID=5a0d0a06
DTITLE=Jim Hall - Youkali
DYEAR=1992
DGENRE=Jazz
TTITLE0=Youkali
TTITLE1=Django
TTITLE2=Skylark
TTITLE3=All Blues
TTITLE4=Malaguena
TTITLE5=All  Across The City
EXTD=
EXTT0=
EXTT1=
EXTT2=
EXTT3=
EXTT4=
EXTT5=
PLAYORDER=
